/* XPM */
static char *eba552703a5043cdc1fd77c4b81c3914Bv1fPPtqpDBhyfpR[] = {
/* columns rows colors chars-per-pixel */
"80 80 11 1 ",
"  c #3F2832",
". c #5E2C26",
"X c #743F39",
"o c #306D38",
"O c #3A4466",
"+ c #91533B",
"@ c #B86F50",
"# c #3E8948",
"$ c #C58972",
"% c #5A6988",
"& c #8B9BB4",
/* pixels */
"################################################################################",
"################################################################################",
"################################################################################",
"################################################################################",
"################################################################################",
"################################################################################",
"################################################################################",
"################################################################################",
"################################################################################",
"################################################################################",
"################################################################################",
"################################################################################",
"################################################################################",
"################################################################################",
"################################################################################",
"################################################################################",
"################################################################################",
"################################################################################",
"################################################################################",
"################################################################################",
"################################################################################",
"################################################################################",
"################################################################################",
"################################################################################",
"################################################################################",
"################################################################################",
"################################################################################",
"################################################################################",
"################################################################################",
"################################################################################",
"################################################################################",
"################################################################################",
"#################################              #################################",
"################################ ++OO++++++OO++ ################################",
"################################ @@%%@@@@@@%%@@ ################################",
"################################ $$&&$$$$$$&&$$ ################################",
"################################ $$&&$$$$$$&&$$ ################################",
"################################ @@%%@@@@@@%%@@ ################################",
"################################ ++%%@@@@@@%%++ ################################",
"################################ ++OO++&&++OO++ ################################",
"################################       &%       ################################",
"################################# +XX .%O. XX+ o################################",
"################################# XXX .X.X XXX o################################",
"################################# XX+ XXXX +XX o################################",
"################################# +++ ++++ +++ o################################",
"#################################o            oo################################",
"#################################ooooooooooooooo################################",
"##################################ooooooooooooo#################################",
"################################################################################",
"################################################################################",
"################################################################################",
"################################################################################",
"################################################################################",
"################################################################################",
"################################################################################",
"################################################################################",
"################################################################################",
"################################################################################",
"################################################################################",
"################################################################################",
"################################################################################",
"################################################################################",
"################################################################################",
"################################################################################",
"################################################################################",
"################################################################################",
"################################################################################",
"################################################################################",
"################################################################################",
"################################################################################",
"################################################################################",
"################################################################################",
"################################################################################",
"################################################################################",
"################################################################################",
"################################################################################",
"################################################################################",
"################################################################################",
"################################################################################",
"################################################################################"
};
