/* XPM */
static char *c4821eda2b0b4cbba5c03c2a5d0fc74fk2jBaKqfXlA2ZspI[] = {
/* columns rows colors chars-per-pixel */
"80 80 8 1 ",
"  c #193C3E",
". c #3F2832",
"X c #6D483B",
"o c #265C42",
"O c #9C6754",
"+ c #3E8948",
"@ c #006DA8",
"# c #0095E9",
/* pixels */
"++++++++++++++++++++++++++++++++++++++++++++++++++++++++++++++++++++++++++++++++",
"++++++++++++++++++++++++++++++++++++++++++++++++++++++++++++++++++++++++++++++++",
"++++++++++++++++++++++++++++++++++++++++++++++++++++++++++++++++++++++++++++++++",
"++++++++++++++++++++++++++++++++++++++++++++++++++++++++++++++++++++++++++++++++",
"++++++++++++++++++++++++++++++++++++++++++++++++++++++++++++++++++++++++++++++++",
"++++++++++++++++++++++++++++++++++++++++++++++++++++++++++++++++++++++++++++++++",
"++++++++++++++++++++++++++++++++++++++++++++++++++++++++++++++++++++++++++++++++",
"++++++++++++++++++++++++++++++++++++++++++++++++++++++++++++++++++++++++++++++++",
"++++++++++++++++++++++++++++++++++++++++++++++++++++++++++++++++++++++++++++++++",
"++++++++++++++++++++++++++++++++++++++++++++++++++++++++++++++++++++++++++++++++",
"++++++++++++++++++++++++++++++++++++++++++++++++++++++++++++++++++++++++++++++++",
"++++++++++++++++++++++++++++++++++++++++++++++++++++++++++++++++++++++++++++++++",
"++++++++++++++++++++++++++++++++++++++++++++++++++++++++++++++++++++++++++++++++",
"++++++++++++++++++++++++++++++++++++++++++++++++++++++++++++++++++++++++++++++++",
"++++++++++++++++++++++++++++++++++++++++++++++++++++++++++++++++++++++++++++++++",
"++++++++++++++++++++++++++++++++++++++++++++++++++++++++++++++++++++++++++++++++",
"++++++++++++++++++++++++++++++++++++++++++++++++++++++++++++++++++++++++++++++++",
"++++++++++++++++++++++++++++++++++++++++++++++++++++++++++++++++++++++++++++++++",
"++++++++++++++++++++++++++++++++++++++++++++++++++++++++++++++++++++++++++++++++",
"++++++++++++++++++++++++++++++++++++++++++++++++++++++++++++++++++++++++++++++++",
"++++++++++++++++++++++++++++++++++++++++++++++++++++++++++++++++++++++++++++++++",
"++++++++++++++++++++++++++++++++o++++oo+++++oo++++++++++++++++++++++++++++++++++",
"+++++++++++++++++++++++++++++++o o++o o++++o o+o++++++++++++++++++++++++++++++++",
"++++++++++++++++++++++++++++o+oo oo+o oo++o  oo o++o++++++++++++++++++++++++++++",
"++++++++++++++++++++++++o++oooo X oo X ooo XX  X o+oo++o++++++++++++++++++++++++",
"+++++++++++++++++++++++o ooo oo XX  XXX   XXOXXX oo o+o o+++++++++++++++++++++++",
"++++++++++++++++++++++++o o X  XXOOXXXOXXXXXOOOXX  X o o++++++++++++++++++++++++",
"+++++++++++++++++++++++++o XXOOXXOOOXXOOOXXXOOOOXOOXX o+++++++++++++++++++++++++",
"+++++++++++++++++++++++++o XOOX..XOO...OOX...OO..XOOX o+++++++++++++++++++++++++",
"++++++++++++++++++++++++oo XX..@@...@@@...@@@..@@..XX oo++++++++++++++++++++++++",
"++++++++++++++++++++++ooo X..@@@@@@@@@@@@@@@@@@@@@@..X ooo++++++++++++++++++++++",
"+++++++++++++++++++++o   XO.@@@##@@@###@@@###@@##@@@.OX   o+++++++++++++++++++++",
"+++++++++++++++++++++o  XXO.@@####################@@.OXX  o+++++++++++++++++++++",
"++++++++++++++++++++++oo XO.@@####################@@.OX oo++++++++++++++++++++++",
"+++++++++++++++++++++++oo X.@@####################@@.X oo+++++++++++++++++++++++",
"++++++++++++++++++++++++o .@@######################@@. o++++++++++++++++++++++++",
"++++++++++++++++++++++ooo .@@######################@@. ooo++++++++++++++++++++++",
"+++++++++++++++++++++o   XX.@@####################@@.XX   o+++++++++++++++++++++",
"+++++++++++++++++++++ooo  O.@@####################@@.O  ooo+++++++++++++++++++++",
"+++++++++++++++++++++++oo O.@@####################@@.O oo+++++++++++++++++++++++",
"++++++++++++++++++++++++o O.@@####################@@.O o++++++++++++++++++++++++",
"++++++++++++++++++++++++o X.@@####################@@.X o++++++++++++++++++++++++",
"+++++++++++++++++++++++oo .@@######################@@. oo+++++++++++++++++++++++",
"++++++++++++++++++++++oo X.@@######################@@.X oo++++++++++++++++++++++",
"+++++++++++++++++++++o  XO.@@######################@@.OX  o+++++++++++++++++++++",
"+++++++++++++++++++++ooo O.@@######################@@.O ooo+++++++++++++++++++++",
"+++++++++++++++++++++++o .@@########################@@. o+++++++++++++++++++++++",
"++++++++++++++++++++++o XX.@@######################@@.XX o++++++++++++++++++++++",
"+++++++++++++++++++++o   XO.@@####################@@.OX   o+++++++++++++++++++++",
"++++++++++++++++++++++ooo X.@@####################@@.X ooo++++++++++++++++++++++",
"++++++++++++++++++++++++oo O.@@##################@@.O oo++++++++++++++++++++++++",
"+++++++++++++++++++++++++o XO.@@################@@.OX o+++++++++++++++++++++++++",
"+++++++++++++++++++++++++o XO.@@#@@@###@@@######@@.OX o+++++++++++++++++++++++++",
"++++++++++++++++++++++++o o X  @@@@@@#@@@@@##@@@@  X o o++++++++++++++++++++++++",
"+++++++++++++++++++++++o ooo oo @   @@@   @@@@@@ oo o+o o+++++++++++++++++++++++",
"++++++++++++++++++++++++o++oooo  ooo @ ooo @@  @ o+oo++o++++++++++++++++++++++++",
"++++++++++++++++++++++++++++o+oo oo+o oo++o  oo o++o++++++++++++++++++++++++++++",
"+++++++++++++++++++++++++++++++ooo++o o++++o o+o++++++++++++++++++++++++++++++++",
"+++++++++++++++++++++++++++++++++++++oo+++++oo++++++++++++++++++++++++++++++++++",
"++++++++++++++++++++++++++++++++++++++++++++++++++++++++++++++++++++++++++++++++",
"++++++++++++++++++++++++++++++++++++++++++++++++++++++++++++++++++++++++++++++++",
"++++++++++++++++++++++++++++++++++++++++++++++++++++++++++++++++++++++++++++++++",
"++++++++++++++++++++++++++++++++++++++++++++++++++++++++++++++++++++++++++++++++",
"++++++++++++++++++++++++++++++++++++++++++++++++++++++++++++++++++++++++++++++++",
"++++++++++++++++++++++++++++++++++++++++++++++++++++++++++++++++++++++++++++++++",
"++++++++++++++++++++++++++++++++++++++++++++++++++++++++++++++++++++++++++++++++",
"++++++++++++++++++++++++++++++++++++++++++++++++++++++++++++++++++++++++++++++++",
"++++++++++++++++++++++++++++++++++++++++++++++++++++++++++++++++++++++++++++++++",
"++++++++++++++++++++++++++++++++++++++++++++++++++++++++++++++++++++++++++++++++",
"++++++++++++++++++++++++++++++++++++++++++++++++++++++++++++++++++++++++++++++++",
"++++++++++++++++++++++++++++++++++++++++++++++++++++++++++++++++++++++++++++++++",
"++++++++++++++++++++++++++++++++++++++++++++++++++++++++++++++++++++++++++++++++",
"++++++++++++++++++++++++++++++++++++++++++++++++++++++++++++++++++++++++++++++++",
"++++++++++++++++++++++++++++++++++++++++++++++++++++++++++++++++++++++++++++++++",
"++++++++++++++++++++++++++++++++++++++++++++++++++++++++++++++++++++++++++++++++",
"++++++++++++++++++++++++++++++++++++++++++++++++++++++++++++++++++++++++++++++++",
"++++++++++++++++++++++++++++++++++++++++++++++++++++++++++++++++++++++++++++++++",
"++++++++++++++++++++++++++++++++++++++++++++++++++++++++++++++++++++++++++++++++",
"++++++++++++++++++++++++++++++++++++++++++++++++++++++++++++++++++++++++++++++++",
"++++++++++++++++++++++++++++++++++++++++++++++++++++++++++++++++++++++++++++++++"
};
